# xmcd
#
# Track frame offsets: 
#        151
#        24726
#        64251
#        84662
#        121991
#        146528
#        167217
#        190880
#        211059
#        230682
#        251493
#
# Disc length: 3644 seconds
#
# Revision: 0
# Processed by: cddbd v1.5.1PL2 Copyright (c) Steve Scherf et al.
# Submitted via: ExactAudioCopy v0.95b3
#
DISCID=9b0e3a0b
DTITLE=Shaakir - Life Is Timing Volume 1
DYEAR=2004
DGENRE=Jazz
TTITLE0=Ready For The World
TTITLE1=Unprotected Sax II
TTITLE2=Just 4 The Ride
TTITLE3=Joy And Pain
TTITLE4=Life Is Timing
TTITLE5=A Groove For Grover
TTITLE6=Don't Ask My Neighbors
TTITLE7=H-Town
TTITLE8=Shaaki's Theme
TTITLE9=Soulful Sax
TTITLE10=Life Is Timing Bonus Track
EXTD=
EXTT0=
EXTT1=
EXTT2=
EXTT3=
EXTT4=
EXTT5=
EXTT6=
EXTT7=
EXTT8=
EXTT9=
EXTT10=
PLAYORDER=
